# xmcd CD database file
#
# Track frame offsets:
#	150
#	2242
#	22223
#	45075
#	63428
#	80663
#	84832
#	106767
#	128255
#	144796
#	168206
#	192427
#	197213
#	219884
#	239142
#	260908
#	289402
#	313721
#
# Disc length: 4501 seconds
#
# Revision: 2
# Processed by: cddbd v1.4b41PL1 Copyright (c) Steve Scherf et al.
# Submitted via: Feurio! 1.53ß - http://www.feurio.com
#
DISCID=f8119312
DTITLE=Eminem - The Marshall Matters LP
DYEAR=1900
DGENRE=
TTITLE0=Public Service Annoucement 2000
TTITLE1=Kill You
TTITLE2=Stan  featuring Dido
TTITLE3=Paul (skit)
TTITLE4=Who Knew
TTITLE5=Steve Berman
TTITLE6=The Way I Am
TTITLE7=The Real Slim Shady
TTITLE8=Remember Me >Ft RBX and Sticky
TTITLE9=I'm Back
TTITLE10=Marshall Mathers
TTITLE11=Ken Kaniff (skit)
TTITLE12=Drug Ballad
TTITLE13=Amityville >Ft Bizarre from D-
TTITLE14=B**** Please II >Ft Dr.Dre,Sno
TTITLE15=Kim
TTITLE16=Under The Influence >Ft D-12
TTITLE17=Criminal
EXTD=
EXTT0=
EXTT1=
EXTT2=
EXTT3=
EXTT4=
EXTT5=
EXTT6=
EXTT7=
EXTT8=
EXTT9=
EXTT10=
EXTT11=
EXTT12=
EXTT13=
EXTT14=
EXTT15=
EXTT16=
EXTT17=
PLAYORDER=
